<?xml version="1.0" standalone="no"?>
<svg xmlns="http://www.w3.org/2000/svg" viewBox="0 0 118.98509803921569 57.04" width="118.98509803921569" height="57.04"><rect fill="#5e24c3" width="118.98509803921569" height="57.04" x="0" y="0"></rect><g fill="white" color="white" transform="translate(12 12) scale(0.6478432)"><svg width="44.0" height="51.0" x="0.0" y="0.0" viewBox="0 0 44 51"><path fill="currentColor" fill-rule="evenodd" d="M21.998 0L0 12.571v25.143l4.19 2.395V15.002L21.999 4.827 39.81 15.002v20.28L21.998 45.459l-9.427-5.388V19.865l9.427-5.386 9.43 5.386v10.553l-9.43 5.387-1.045-.597V24.73l5.268-3.012-4.223-2.413-5.236 2.994v15.34l5.236 2.993 13.62-7.784V17.435l-13.62-7.781-13.617 7.78v25.068l13.617 7.784L44 37.714V12.571z"></path></svg></g><path fill="white" fill-rule="nonzero" d="M4.44 32.68L0 32.68L0 0.28L4.44 0.28L4.44 32.68ZM13.28 32.68L9.60 32.68L10.20 0.28L14.64 0.28L20.36 26.56L26.12 0.28L30.52 0.28L31.12 32.68L27.48 32.68L27.12 9.16L21.64 32.68L19.08 32.68L13.64 9.16L13.28 32.68ZM43.72 33.04L43.72 33.04Q40.92 33.04 39.06 31.84Q37.20 30.64 36.24 28.52Q35.28 26.40 35.12 23.60L35.12 23.60L39.12 22.52Q39.24 24.24 39.66 25.84Q40.08 27.44 41.04 28.46Q42 29.48 43.72 29.48L43.72 29.48Q45.48 29.48 46.38 28.50Q47.28 27.52 47.28 25.68L47.28 25.68Q47.28 23.48 46.28 22.14Q45.28 20.80 43.76 19.44L43.76 19.44L38.32 14.64Q36.72 13.24 35.96 11.58Q35.20 9.92 35.20 7.48L35.20 7.48Q35.20 3.92 37.24 1.96Q39.28 0 42.80 0L42.80 0Q44.72 0 46.18 0.50Q47.64 1 48.62 2.04Q49.60 3.08 50.18 4.66Q50.76 6.24 50.96 8.36L50.96 8.36L47.12 9.40Q47 7.80 46.64 6.46Q46.28 5.12 45.38 4.30Q44.48 3.48 42.80 3.48L42.80 3.48Q41.12 3.48 40.18 4.38Q39.24 5.28 39.24 7.04L39.24 7.04Q39.24 8.52 39.74 9.48Q40.24 10.44 41.36 11.44L41.36 11.44L46.84 16.24Q48.68 17.84 50.08 20.06Q51.48 22.28 51.48 25.32L51.48 25.32Q51.48 27.72 50.48 29.46Q49.48 31.20 47.74 32.12Q46 33.04 43.72 33.04Z" transform="translate(55.506 12) scale(1)"></path></svg>